<svg id="vector" xmlns="http://www.w3.org/2000/svg" width="24" height="24" viewBox="0 0 24 24"><path fill="#fff" d="M7,6H17V8h2V3a2.0059,2.0059 0,0 0,-2 -2H7A2.0059,2.0059 0,0 0,5 3V8H7ZM7,3H17V4H7Z" id="path_0"/><path fill="#fff" d="M17,18L7,18L7,16L5,16v5a2.0059,2.0059 0,0 0,2 2L17,23a2.0059,2.0059 0,0 0,2 -2L19,16L17,16ZM17,21L7,21L7,20L17,20Z" id="path_1"/><path fill="#fff" d="M5.005,13l11.99,0l0,-2l-11.99,0l0,-2l-3,3l3,3l0,-2z" id="path_2"/><path fill="#fff" d="M20.4953,11h1.5v2h-1.5z" id="path_3"/><path fill="#fff" d="M17.9953,11h1.5v2h-1.5z" id="path_4"/></svg>